<svg xmlns="http://www.w3.org/2000/svg" version="1.1" xmlns:xlink="http://www.w3.org/1999/xlink" xmlns:svgjs="http://svgjs.dev/svgjs" width="2000" height="287" viewBox="0 0 2000 287"><g transform="matrix(1,0,0,1,-1.2121212121212466,-0.5550162395809934)"><svg viewBox="0 0 396 57" data-background-color="#040046" preserveAspectRatio="xMidYMid meet" height="287" width="2000" xmlns="http://www.w3.org/2000/svg" xmlns:xlink="http://www.w3.org/1999/xlink"><g id="tight-bounds" transform="matrix(1,0,0,1,0.2400000000000091,0.11022970611887217)"><svg viewBox="0 0 395.52 56.779540587762234" height="56.779540587762234" width="395.52"><g><svg viewBox="0 0 492.8100738988255 70.74618121206632" height="56.779540587762234" width="395.52"><g transform="matrix(1,0,0,1,0,1.2456515264063839)"><svg viewBox="0 0 395.52 68.25487815925355" height="68.25487815925355" width="395.52"><g id="textblocktransform"><svg viewBox="0 0 395.52 68.25487815925355" height="68.25487815925355" width="395.52" id="textblock"><g><svg viewBox="0 0 395.52 68.25487815925355" height="68.25487815925355" width="395.52"><g transform="matrix(1,0,0,1,0,0)"><svg width="395.52" viewBox="4.49 -36.01 269.49 46.51" height="68.25487815925355" data-palette-color="url(#3d6df626-2f81-4b73-80fe-ef98ab1096e6)"></svg></g></svg></g></svg></g></svg></g><g transform="matrix(1,0,0,1,411.6333386163239,0)"><svg viewBox="0 0 81.17673528250158 70.74618121206632" height="70.74618121206632" width="81.17673528250158"><g><svg xmlns="http://www.w3.org/2000/svg" xmlns:xlink="http://www.w3.org/1999/xlink" version="1.0" x="0" y="0" viewBox="1.118 4.1185758 47.921 41.76353899999999" enable-background="new 0 0 50 50" xml:space="preserve" height="70.74618121206632" width="81.17673528250158" class="icon-icon-0" data-fill-palette-color="accent" id="icon-0"></svg></g></svg></g></svg></g><defs></defs><mask id="eb41de0a-108f-4c43-9894-46e4cbaa4f85"><g id="SvgjsG4245"><svg viewBox="0 0 395.52 56.779540587762234" height="56.779540587762234" width="395.52"><g><svg viewBox="0 0 492.8100738988255 70.74618121206632" height="56.779540587762234" width="395.52"><g transform="matrix(1,0,0,1,0,1.2456515264063839)"><svg viewBox="0 0 395.52 68.25487815925355" height="68.25487815925355" width="395.52"><g id="SvgjsG4244"><svg viewBox="0 0 395.52 68.25487815925355" height="68.25487815925355" width="395.52" id="SvgjsSvg4243"><g><svg viewBox="0 0 395.52 68.25487815925355" height="68.25487815925355" width="395.52"><g transform="matrix(1,0,0,1,0,0)"><svg width="395.52" viewBox="4.49 -36.01 269.49 46.51" height="68.25487815925355" data-palette-color="url(#3d6df626-2f81-4b73-80fe-ef98ab1096e6)"><path d="M4.49-5L4.49-30Q4.49-31.03 4.88-31.95 5.27-32.86 5.96-33.53 6.64-34.2 7.56-34.61 8.47-35.01 9.5-35.01L9.5-35.01 28.49-35.01Q29.52-35.01 30.43-34.61 31.35-34.2 32.03-33.53 32.71-32.86 33.11-31.95 33.5-31.03 33.5-30L33.5-30 33.5-25.49 28.49-25.49 28.49-30 9.5-30 9.5-5 28.49-5 28.49-9.5 33.5-9.5 33.5-5Q33.5-3.98 33.11-3.06 32.71-2.15 32.03-1.46 31.35-0.78 30.43-0.39 29.52 0 28.49 0L28.49 0 9.5 0Q8.47 0 7.56-0.39 6.64-0.78 5.96-1.46 5.27-2.15 4.88-3.06 4.49-3.98 4.49-5L4.49-5ZM63.5-21.19L63.5-4.81Q63.5-3.81 63.12-2.93 62.74-2.05 62.09-1.4 61.45-0.76 60.58-0.38 59.71 0 58.71 0L58.71 0 45.8 0Q44.82 0 43.94-0.38 43.06-0.76 42.42-1.4 41.77-2.05 41.39-2.93 41.01-3.81 41.01-4.81L41.01-4.81 41.01-21.19Q41.01-22.19 41.39-23.07 41.77-23.95 42.42-24.6 43.06-25.24 43.94-25.62 44.82-26 45.8-26L45.8-26 58.71-26Q59.71-26 60.58-25.62 61.45-25.24 62.09-24.6 62.74-23.95 63.12-23.07 63.5-22.19 63.5-21.19L63.5-21.19ZM58.71-21.19L45.8-21.19 45.8-4.81 58.71-4.81 58.71-21.19ZM71.5-4.81L71.5-21.19Q71.5-22.19 71.88-23.07 72.26-23.95 72.91-24.6 73.55-25.24 74.43-25.62 75.31-26 76.29-26L76.29-26 89.69-26 89.69-36.01 94.5-36.01 94.5 0 89.69 0 89.69-4.39Q89.62-3.49 89.2-2.69 88.79-1.88 88.14-1.28 87.5-0.68 86.66-0.34 85.83 0 84.91 0L84.91 0 76.29 0Q75.31 0 74.43-0.38 73.55-0.76 72.91-1.4 72.26-2.05 71.88-2.93 71.5-3.81 71.5-4.81L71.5-4.81ZM76.29-21.19L76.29-4.81 89.69-4.81 89.69-21.19 76.29-21.19ZM124.5-21.19L124.5-10.55 107.29-10.55 107.29-4.81 124.5-4.81 124.5 0 107.29 0Q106.32 0 105.44-0.38 104.56-0.76 103.91-1.4 103.26-2.05 102.89-2.93 102.51-3.81 102.51-4.81L102.51-4.81 102.51-21.19Q102.51-22.19 102.89-23.07 103.26-23.95 103.91-24.6 104.56-25.24 105.44-25.62 106.32-26 107.29-26L107.29-26 119.69-26Q120.7-26 121.57-25.62 122.45-25.24 123.1-24.6 123.75-23.95 124.13-23.07 124.5-22.19 124.5-21.19L124.5-21.19ZM119.69-21.19L107.29-21.19 107.29-15.36 119.69-15.36 119.69-21.19ZM133 0L133-35.01 158.51-35.01 158.51-30 138-30 138-20 155.51-20 155.51-14.99 138-14.99 138 0 133 0ZM187.49-21.19L187.49-4.81Q187.49-3.81 187.11-2.93 186.73-2.05 186.08-1.4 185.44-0.76 184.57-0.38 183.7 0 182.7 0L182.7 0 169.79 0Q168.81 0 167.93-0.38 167.05-0.76 166.41-1.4 165.76-2.05 165.38-2.93 165-3.81 165-4.81L165-4.81 165-21.19Q165-22.19 165.38-23.07 165.76-23.95 166.41-24.6 167.05-25.24 167.93-25.62 168.81-26 169.79-26L169.79-26 182.7-26Q183.7-26 184.57-25.62 185.44-25.24 186.08-24.6 186.73-23.95 187.11-23.07 187.49-22.19 187.49-21.19L187.49-21.19ZM182.7-21.19L169.79-21.19 169.79-4.81 182.7-4.81 182.7-21.19ZM210.19-21.19L200.28-21.19 200.28 0 195.49 0 195.49-26 200.28-26 200.28-21.41Q200.33-22.36 200.72-23.21 201.11-24.05 201.76-24.67 202.4-25.29 203.26-25.65 204.11-26 205.09-26L205.09-26 210.19-26Q211.19-26 212.06-25.62 212.92-25.24 213.58-24.6 214.24-23.95 214.62-23.07 215-22.19 215-21.19L215-21.19 215-16.8 210.19-16.8 210.19-21.19ZM220.98-5.81L220.98-21.19Q220.98-22.19 221.36-23.07 221.74-23.95 222.38-24.6 223.03-25.24 223.91-25.62 224.79-26 225.76-26L225.76-26 234.38-26Q235.33-26 236.19-25.65 237.04-25.29 237.69-24.67 238.34-24.05 238.74-23.21 239.14-22.36 239.17-21.41L239.17-21.41 239.17-26 243.98-26 243.98 5.69Q243.98 6.69 243.6 7.57 243.22 8.45 242.57 9.09 241.93 9.74 241.05 10.12 240.17 10.5 239.17 10.5L239.17 10.5 223.98 10.5 223.98 5.69 239.17 5.69 239.17-1 225.76-1Q224.79-1 223.91-1.38 223.03-1.76 222.38-2.4 221.74-3.05 221.36-3.93 220.98-4.81 220.98-5.81L220.98-5.81ZM225.76-5.81L239.17-5.81 239.17-21.19 225.76-21.19 225.76-5.81ZM273.98-21.19L273.98-10.55 256.77-10.55 256.77-4.81 273.98-4.81 273.98 0 256.77 0Q255.79 0 254.91-0.38 254.03-0.76 253.39-1.4 252.74-2.05 252.36-2.93 251.98-3.81 251.98-4.81L251.98-4.81 251.98-21.19Q251.98-22.19 252.36-23.07 252.74-23.95 253.39-24.6 254.03-25.24 254.91-25.62 255.79-26 256.77-26L256.77-26 269.17-26Q270.17-26 271.05-25.62 271.93-25.24 272.58-24.6 273.22-23.95 273.6-23.07 273.98-22.19 273.98-21.19L273.98-21.19ZM269.17-21.19L256.77-21.19 256.77-15.36 269.17-15.36 269.17-21.19Z" opacity="1" transform="matrix(1,0,0,1,0,0)" fill="white" class="wordmark-text-0" id="SvgjsPath4242"></path></svg></g></svg></g></svg></g></svg></g><g transform="matrix(1,0,0,1,411.6333386163239,0)"><svg viewBox="0 0 81.17673528250158 70.74618121206632" height="70.74618121206632" width="81.17673528250158"><g><svg xmlns="http://www.w3.org/2000/svg" xmlns:xlink="http://www.w3.org/1999/xlink" version="1.0" x="0" y="0" viewBox="1.118 4.1185758 47.921 41.76353899999999" enable-background="new 0 0 50 50" xml:space="preserve" height="70.74618121206632" width="81.17673528250158" class="icon-icon-0" data-fill-palette-color="accent" id="SvgjsSvg4241"><g fill="black"><g fill="black"><polygon fill="black" points="10.821,24.951 21,32.193 21,39.035 1.118,24.891 21,11.118 21,17.9   "></polygon></g><g fill="black"><polygon fill="black" points="49.039,25.277 35.815,16.063 34.219,21.712 39.475,25.338 31.411,30.97 29,38.79 29,39.424   "></polygon></g><rect x="25.577" y="3.983" transform="matrix(0.9606 0.278 -0.278 0.9606 8.0575 -6.8179)" fill="black" width="4.981" height="42.035"></rect></g></svg></g></svg></g></svg></g><defs><mask></mask></defs></svg><rect width="395.52" height="56.779540587762234" fill="black" stroke="none" visibility="hidden"></rect></g></mask><linearGradient x1="0" x2="1" y1="0.578" y2="0.595" id="3d6df626-2f81-4b73-80fe-ef98ab1096e6"><stop stop-color="#6ee2f5" offset="0"></stop><stop stop-color="#6454f0" offset="1"></stop></linearGradient><rect width="395.52" height="56.779540587762234" fill="url(#3d6df626-2f81-4b73-80fe-ef98ab1096e6)" mask="url(#eb41de0a-108f-4c43-9894-46e4cbaa4f85)" data-fill-palette-color="primary"></rect><mask id="ea68bc87-930d-4c07-89d2-59f3d7a5f70f"><g id="SvgjsG4264"><svg viewBox="0 0 395.52 56.779540587762234" height="56.779540587762234" width="395.52"><g><svg viewBox="0 0 492.8100738988255 70.74618121206632" height="56.779540587762234" width="395.52"><g transform="matrix(1,0,0,1,0,1.2456515264063839)"><svg viewBox="0 0 395.52 68.25487815925355" height="68.25487815925355" width="395.52"><g id="SvgjsG4263"><svg viewBox="0 0 395.52 68.25487815925355" height="68.25487815925355" width="395.52" id="SvgjsSvg4262"><g><svg viewBox="0 0 395.52 68.25487815925355" height="68.25487815925355" width="395.52"><g transform="matrix(1,0,0,1,0,0)"><svg width="395.52" viewBox="4.49 -36.01 269.49 46.51" height="68.25487815925355" data-palette-color="url(#3d6df626-2f81-4b73-80fe-ef98ab1096e6)"></svg></g></svg></g></svg></g></svg></g><g transform="matrix(1,0,0,1,411.6333386163239,0)"><svg viewBox="0 0 81.17673528250158 70.74618121206632" height="70.74618121206632" width="81.17673528250158"><g><svg xmlns="http://www.w3.org/2000/svg" xmlns:xlink="http://www.w3.org/1999/xlink" version="1.0" x="0" y="0" viewBox="1.118 4.1185758 47.921 41.76353899999999" enable-background="new 0 0 50 50" xml:space="preserve" height="70.74618121206632" width="81.17673528250158" class="icon-icon-0" data-fill-palette-color="accent" id="SvgjsSvg4261"><g fill="white"><g fill="white"><polygon fill="white" points="10.821,24.951 21,32.193 21,39.035 1.118,24.891 21,11.118 21,17.9   "></polygon></g><g fill="white"><polygon fill="white" points="49.039,25.277 35.815,16.063 34.219,21.712 39.475,25.338 31.411,30.97 29,38.79 29,39.424   "></polygon></g><rect x="25.577" y="3.983" transform="matrix(0.9606 0.278 -0.278 0.9606 8.0575 -6.8179)" fill="white" width="4.981" height="42.035"></rect></g></svg></g></svg></g></svg></g><defs><mask></mask></defs><mask><g id="SvgjsG4260"><svg viewBox="0 0 395.52 56.779540587762234" height="56.779540587762234" width="395.52"><g><svg viewBox="0 0 492.8100738988255 70.74618121206632" height="56.779540587762234" width="395.52"><g transform="matrix(1,0,0,1,0,1.2456515264063839)"><svg viewBox="0 0 395.52 68.25487815925355" height="68.25487815925355" width="395.52"><g id="SvgjsG4259"><svg viewBox="0 0 395.52 68.25487815925355" height="68.25487815925355" width="395.52" id="SvgjsSvg4258"><g><svg viewBox="0 0 395.52 68.25487815925355" height="68.25487815925355" width="395.52"><g transform="matrix(1,0,0,1,0,0)"><svg width="395.52" viewBox="4.49 -36.01 269.49 46.51" height="68.25487815925355" data-palette-color="url(#3d6df626-2f81-4b73-80fe-ef98ab1096e6)"><path d="M4.49-5L4.49-30Q4.49-31.03 4.88-31.95 5.27-32.86 5.96-33.53 6.64-34.2 7.56-34.61 8.47-35.01 9.5-35.01L9.5-35.01 28.49-35.01Q29.52-35.01 30.43-34.61 31.35-34.2 32.03-33.53 32.71-32.86 33.11-31.95 33.5-31.03 33.5-30L33.5-30 33.5-25.49 28.49-25.49 28.49-30 9.5-30 9.5-5 28.49-5 28.49-9.5 33.5-9.5 33.5-5Q33.5-3.98 33.11-3.06 32.71-2.15 32.03-1.46 31.35-0.78 30.43-0.39 29.52 0 28.49 0L28.49 0 9.5 0Q8.47 0 7.56-0.39 6.64-0.78 5.96-1.46 5.27-2.15 4.88-3.06 4.49-3.98 4.49-5L4.49-5ZM63.5-21.19L63.5-4.81Q63.5-3.81 63.12-2.93 62.74-2.05 62.09-1.4 61.45-0.76 60.58-0.38 59.71 0 58.71 0L58.71 0 45.8 0Q44.82 0 43.94-0.38 43.06-0.76 42.42-1.4 41.77-2.05 41.39-2.93 41.01-3.81 41.01-4.81L41.01-4.81 41.01-21.19Q41.01-22.19 41.39-23.07 41.77-23.95 42.42-24.6 43.06-25.24 43.94-25.62 44.82-26 45.8-26L45.8-26 58.71-26Q59.71-26 60.58-25.62 61.45-25.24 62.09-24.6 62.74-23.95 63.12-23.07 63.5-22.19 63.5-21.19L63.5-21.19ZM58.71-21.19L45.8-21.19 45.8-4.81 58.71-4.81 58.71-21.19ZM71.5-4.81L71.5-21.19Q71.5-22.19 71.88-23.07 72.26-23.95 72.91-24.6 73.55-25.24 74.43-25.62 75.31-26 76.29-26L76.29-26 89.69-26 89.69-36.01 94.5-36.01 94.5 0 89.69 0 89.69-4.39Q89.62-3.49 89.2-2.69 88.79-1.88 88.14-1.28 87.5-0.68 86.66-0.34 85.83 0 84.91 0L84.91 0 76.29 0Q75.31 0 74.43-0.38 73.55-0.76 72.91-1.4 72.26-2.05 71.88-2.93 71.5-3.81 71.5-4.81L71.5-4.81ZM76.29-21.19L76.29-4.81 89.69-4.81 89.69-21.19 76.29-21.19ZM124.5-21.19L124.5-10.55 107.29-10.55 107.29-4.81 124.5-4.81 124.5 0 107.29 0Q106.32 0 105.44-0.38 104.56-0.76 103.91-1.4 103.26-2.05 102.89-2.93 102.51-3.81 102.51-4.81L102.51-4.81 102.51-21.19Q102.51-22.19 102.89-23.07 103.26-23.95 103.91-24.6 104.56-25.24 105.44-25.62 106.32-26 107.29-26L107.29-26 119.69-26Q120.7-26 121.57-25.62 122.45-25.24 123.1-24.6 123.75-23.95 124.13-23.07 124.5-22.19 124.5-21.19L124.5-21.19ZM119.69-21.19L107.29-21.19 107.29-15.36 119.69-15.36 119.69-21.19ZM133 0L133-35.01 158.51-35.01 158.51-30 138-30 138-20 155.51-20 155.51-14.99 138-14.99 138 0 133 0ZM187.49-21.19L187.49-4.81Q187.49-3.81 187.11-2.93 186.73-2.05 186.08-1.4 185.44-0.76 184.57-0.38 183.7 0 182.7 0L182.7 0 169.79 0Q168.81 0 167.93-0.38 167.05-0.76 166.41-1.4 165.76-2.05 165.38-2.93 165-3.81 165-4.81L165-4.81 165-21.19Q165-22.19 165.38-23.07 165.76-23.95 166.41-24.6 167.05-25.24 167.93-25.62 168.81-26 169.79-26L169.79-26 182.7-26Q183.7-26 184.57-25.62 185.44-25.24 186.08-24.6 186.73-23.95 187.11-23.07 187.49-22.19 187.49-21.19L187.49-21.19ZM182.7-21.19L169.79-21.19 169.79-4.81 182.7-4.81 182.7-21.19ZM210.19-21.19L200.28-21.19 200.28 0 195.49 0 195.49-26 200.28-26 200.28-21.41Q200.33-22.36 200.72-23.21 201.11-24.05 201.76-24.67 202.4-25.29 203.26-25.65 204.11-26 205.09-26L205.09-26 210.19-26Q211.19-26 212.06-25.62 212.92-25.24 213.58-24.6 214.24-23.95 214.62-23.07 215-22.19 215-21.19L215-21.19 215-16.8 210.19-16.8 210.19-21.19ZM220.98-5.81L220.98-21.19Q220.98-22.19 221.36-23.07 221.74-23.95 222.38-24.6 223.03-25.24 223.91-25.62 224.79-26 225.76-26L225.76-26 234.38-26Q235.33-26 236.19-25.65 237.04-25.29 237.69-24.67 238.34-24.05 238.74-23.21 239.14-22.36 239.17-21.41L239.17-21.41 239.17-26 243.98-26 243.98 5.69Q243.98 6.69 243.6 7.57 243.22 8.45 242.57 9.09 241.93 9.74 241.05 10.12 240.17 10.5 239.17 10.5L239.17 10.5 223.98 10.5 223.98 5.69 239.17 5.69 239.17-1 225.76-1Q224.79-1 223.91-1.38 223.03-1.76 222.38-2.4 221.74-3.05 221.36-3.93 220.98-4.81 220.98-5.81L220.98-5.81ZM225.76-5.81L239.17-5.81 239.17-21.19 225.76-21.19 225.76-5.81ZM273.98-21.19L273.98-10.55 256.77-10.55 256.77-4.81 273.98-4.81 273.98 0 256.77 0Q255.79 0 254.91-0.38 254.03-0.76 253.39-1.4 252.74-2.05 252.36-2.93 251.98-3.81 251.98-4.81L251.98-4.81 251.98-21.19Q251.98-22.19 252.36-23.07 252.74-23.95 253.39-24.6 254.03-25.24 254.91-25.62 255.79-26 256.77-26L256.77-26 269.17-26Q270.17-26 271.05-25.62 271.93-25.24 272.58-24.6 273.22-23.95 273.6-23.07 273.98-22.19 273.98-21.19L273.98-21.19ZM269.17-21.19L256.77-21.19 256.77-15.36 269.17-15.36 269.17-21.19Z" opacity="1" transform="matrix(1,0,0,1,0,0)" fill="black" class="wordmark-text-0" id="SvgjsPath4257"></path></svg></g></svg></g></svg></g></svg></g><g transform="matrix(1,0,0,1,411.6333386163239,0)"><svg viewBox="0 0 81.17673528250158 70.74618121206632" height="70.74618121206632" width="81.17673528250158"><g><svg xmlns="http://www.w3.org/2000/svg" xmlns:xlink="http://www.w3.org/1999/xlink" version="1.0" x="0" y="0" viewBox="1.118 4.1185758 47.921 41.76353899999999" enable-background="new 0 0 50 50" xml:space="preserve" height="70.74618121206632" width="81.17673528250158" class="icon-icon-0" data-fill-palette-color="accent" id="SvgjsSvg4256"><g fill="black"><g fill="black"><polygon fill="black" points="10.821,24.951 21,32.193 21,39.035 1.118,24.891 21,11.118 21,17.9   "></polygon></g><g fill="black"><polygon fill="black" points="49.039,25.277 35.815,16.063 34.219,21.712 39.475,25.338 31.411,30.97 29,38.79 29,39.424   "></polygon></g><rect x="25.577" y="3.983" transform="matrix(0.9606 0.278 -0.278 0.9606 8.0575 -6.8179)" fill="black" width="4.981" height="42.035"></rect></g></svg></g></svg></g></svg></g><defs><mask></mask></defs></svg><rect width="395.52" height="56.779540587762234" fill="black" stroke="none" visibility="hidden"></rect></g></mask></svg><rect width="395.52" height="56.779540587762234" fill="black" stroke="none" visibility="hidden"></rect></g></mask><linearGradient x1="0" x2="1" y1="0.578" y2="0.595" id="b1cf7cc9-6c9b-4461-a7fe-3ea017be6b5d"><stop stop-color="#6ee2f5" offset="0"></stop><stop stop-color="#6454f0" offset="1"></stop></linearGradient><rect width="395.52" height="56.779540587762234" fill="url(#b1cf7cc9-6c9b-4461-a7fe-3ea017be6b5d)" mask="url(#ea68bc87-930d-4c07-89d2-59f3d7a5f70f)" data-fill-palette-color="accent"></rect></svg><rect width="395.52" height="56.779540587762234" fill="none" stroke="none" visibility="hidden"></rect></g></svg></g></svg>